<?xml version="1.0" encoding="utf-8" standalone="no"?>
<!DOCTYPE svg PUBLIC "-//W3C//DTD SVG 1.1//EN"
  "http://www.w3.org/Graphics/SVG/1.1/DTD/svg11.dtd">
<svg xmlns:xlink="http://www.w3.org/1999/xlink" width="988.586428pt" height="438.21375pt" viewBox="0 0 988.586428 438.21375" xmlns="http://www.w3.org/2000/svg" version="1.1">
 <metadata>
  <rdf:RDF xmlns:dc="http://purl.org/dc/elements/1.1/" xmlns:cc="http://creativecommons.org/ns#" xmlns:rdf="http://www.w3.org/1999/02/22-rdf-syntax-ns#">
   <cc:Work>
    <dc:type rdf:resource="http://purl.org/dc/dcmitype/StillImage"/>
    <dc:date>2026-04-23T17:13:46.058114</dc:date>
    <dc:format>image/svg+xml</dc:format>
    <dc:creator>
     <cc:Agent>
      <dc:title>Matplotlib v3.10.7, https://matplotlib.org/</dc:title>
     </cc:Agent>
    </dc:creator>
   </cc:Work>
  </rdf:RDF>
 </metadata>
 <defs>
  <style type="text/css">*{stroke-linejoin: round; stroke-linecap: butt}</style>
 </defs>
 <g id="figure_1">
  <g id="patch_1">
   <path d="M 0 438.21375 
L 988.586428 438.21375 
L 988.586428 0 
L 0 0 
z
" style="fill: #ffffff"/>
  </g>
  <g id="axes_1">
   <g id="patch_2">
    <path d="M 63.05 377.32 
L 762.162 377.32 
L 762.162 7.2 
L 63.05 7.2 
z
" style="fill: #ffffff"/>
   </g>
   <g id="line2d_1">
    <path d="M 63.05 357.227375 
L 762.162 357.227375 
" clip-path="url(#pd740ddceee)" style="fill: none; stroke-dasharray: 1.2,1.98; stroke-dashoffset: 0; stroke: #888888; stroke-width: 1.2"/>
   </g>
   <g id="matplotlib.axis_1">
    <g id="xtick_1">
     <g id="line2d_2">
      <defs>
       <path id="maa63c4fdce" d="M 0 0 
L 0 3.5 
" style="stroke: #000000; stroke-width: 0.8"/>
      </defs>
      <g>
       <use xlink:href="#maa63c4fdce" x="63.05" y="377.32" style="stroke: #000000; stroke-width: 0.8"/>
      </g>
     </g>
     <g id="text_1">
      <!-- 0 -->
      <g transform="translate(57.659375 399.12625) scale(0.2 -0.2)">
       <defs>
        <path id="SegoeUI-30" d="M 3188 2259 
Q 3188 1697 3086 1262 
Q 2984 828 2792 529 
Q 2600 231 2320 76 
Q 2041 -78 1684 -78 
Q 1347 -78 1083 70 
Q 819 219 637 503 
Q 456 788 362 1202 
Q 269 1616 269 2150 
Q 269 2738 367 3188 
Q 466 3638 656 3942 
Q 847 4247 1130 4401 
Q 1413 4556 1778 4556 
Q 3188 4556 3188 2259 
z
M 2663 2209 
Q 2663 4122 1753 4122 
Q 794 4122 794 2175 
Q 794 359 1734 359 
Q 2663 359 2663 2209 
z
" transform="scale(0.015625)"/>
       </defs>
       <use xlink:href="#SegoeUI-30"/>
      </g>
     </g>
    </g>
    <g id="xtick_2">
     <g id="line2d_3">
      <g>
       <use xlink:href="#maa63c4fdce" x="179.568667" y="377.32" style="stroke: #000000; stroke-width: 0.8"/>
      </g>
     </g>
     <g id="text_2">
      <!-- 10 -->
      <g transform="translate(168.787417 399.12625) scale(0.2 -0.2)">
       <defs>
        <path id="SegoeUI-31" d="M 2263 0 
L 1750 0 
L 1750 3872 
Q 1691 3813 1577 3736 
Q 1463 3659 1320 3584 
Q 1178 3509 1020 3443 
Q 863 3378 713 3341 
L 713 3859 
Q 881 3906 1070 3986 
Q 1259 4066 1442 4164 
Q 1625 4263 1787 4370 
Q 1950 4478 2069 4581 
L 2263 4581 
L 2263 0 
z
" transform="scale(0.015625)"/>
       </defs>
       <use xlink:href="#SegoeUI-31"/>
       <use xlink:href="#SegoeUI-30" transform="translate(53.90625 0)"/>
      </g>
     </g>
    </g>
    <g id="xtick_3">
     <g id="line2d_4">
      <g>
       <use xlink:href="#maa63c4fdce" x="296.087333" y="377.32" style="stroke: #000000; stroke-width: 0.8"/>
      </g>
     </g>
     <g id="text_3">
      <!-- 20 -->
      <g transform="translate(285.306083 399.12625) scale(0.2 -0.2)">
       <defs>
        <path id="SegoeUI-32" d="M 2413 3306 
Q 2413 3513 2348 3666 
Q 2284 3819 2173 3920 
Q 2063 4022 1913 4072 
Q 1763 4122 1588 4122 
Q 1438 4122 1294 4081 
Q 1150 4041 1014 3969 
Q 878 3897 751 3797 
Q 625 3697 516 3575 
L 516 4125 
Q 731 4334 998 4445 
Q 1266 4556 1650 4556 
Q 1925 4556 2159 4476 
Q 2394 4397 2566 4244 
Q 2738 4091 2836 3866 
Q 2934 3641 2934 3350 
Q 2934 3084 2873 2868 
Q 2813 2653 2689 2462 
Q 2566 2272 2378 2097 
Q 2191 1922 1938 1741 
Q 1622 1516 1417 1356 
Q 1213 1197 1092 1058 
Q 972 919 923 780 
Q 875 641 875 459 
L 3106 459 
L 3106 0 
L 341 0 
L 341 222 
Q 341 509 403 728 
Q 466 947 609 1144 
Q 753 1341 986 1537 
Q 1219 1734 1556 1981 
Q 1800 2156 1964 2315 
Q 2128 2475 2228 2634 
Q 2328 2794 2370 2958 
Q 2413 3122 2413 3306 
z
" transform="scale(0.015625)"/>
       </defs>
       <use xlink:href="#SegoeUI-32"/>
       <use xlink:href="#SegoeUI-30" transform="translate(53.90625 0)"/>
      </g>
     </g>
    </g>
    <g id="xtick_4">
     <g id="line2d_5">
      <g>
       <use xlink:href="#maa63c4fdce" x="412.606" y="377.32" style="stroke: #000000; stroke-width: 0.8"/>
      </g>
     </g>
     <g id="text_4">
      <!-- 30 -->
      <g transform="translate(401.82475 399.12625) scale(0.2 -0.2)">
       <defs>
        <path id="SegoeUI-33" d="M 2978 1269 
Q 2978 966 2864 717 
Q 2750 469 2542 292 
Q 2334 116 2043 19 
Q 1753 -78 1403 -78 
Q 763 -78 384 166 
L 384 716 
Q 838 359 1422 359 
Q 1656 359 1845 418 
Q 2034 478 2170 590 
Q 2306 703 2379 862 
Q 2453 1022 2453 1222 
Q 2453 2100 1203 2100 
L 831 2100 
L 831 2534 
L 1184 2534 
Q 2291 2534 2291 3359 
Q 2291 4122 1447 4122 
Q 972 4122 556 3803 
L 556 4300 
Q 984 4556 1575 4556 
Q 1856 4556 2084 4478 
Q 2313 4400 2475 4259 
Q 2638 4119 2727 3922 
Q 2816 3725 2816 3488 
Q 2816 2603 1922 2350 
L 1922 2338 
Q 2150 2313 2344 2227 
Q 2538 2141 2678 2003 
Q 2819 1866 2898 1680 
Q 2978 1494 2978 1269 
z
" transform="scale(0.015625)"/>
       </defs>
       <use xlink:href="#SegoeUI-33"/>
       <use xlink:href="#SegoeUI-30" transform="translate(53.90625 0)"/>
      </g>
     </g>
    </g>
    <g id="xtick_5">
     <g id="line2d_6">
      <g>
       <use xlink:href="#maa63c4fdce" x="529.124667" y="377.32" style="stroke: #000000; stroke-width: 0.8"/>
      </g>
     </g>
     <g id="text_5">
      <!-- 40 -->
      <g transform="translate(518.343417 399.12625) scale(0.2 -0.2)">
       <defs>
        <path id="SegoeUI-34" d="M 2656 4481 
L 2656 1522 
L 3231 1522 
L 3231 1053 
L 2656 1053 
L 2656 0 
L 2150 0 
L 2150 1053 
L 44 1053 
L 44 1497 
Q 338 1828 638 2204 
Q 938 2581 1211 2968 
Q 1484 3356 1717 3742 
Q 1950 4128 2109 4481 
L 2656 4481 
z
M 622 1522 
L 2150 1522 
L 2150 3716 
Q 1916 3306 1706 2984 
Q 1497 2663 1308 2400 
Q 1119 2138 947 1925 
Q 775 1713 622 1522 
z
" transform="scale(0.015625)"/>
       </defs>
       <use xlink:href="#SegoeUI-34"/>
       <use xlink:href="#SegoeUI-30" transform="translate(53.90625 0)"/>
      </g>
     </g>
    </g>
    <g id="xtick_6">
     <g id="line2d_7">
      <g>
       <use xlink:href="#maa63c4fdce" x="645.643333" y="377.32" style="stroke: #000000; stroke-width: 0.8"/>
      </g>
     </g>
     <g id="text_6">
      <!-- 50 -->
      <g transform="translate(634.862083 399.12625) scale(0.2 -0.2)">
       <defs>
        <path id="SegoeUI-35" d="M 3028 1369 
Q 3028 1041 2915 775 
Q 2803 509 2595 318 
Q 2388 128 2094 25 
Q 1800 -78 1441 -78 
Q 816 -78 513 109 
L 513 653 
Q 969 359 1447 359 
Q 1691 359 1886 431 
Q 2081 503 2218 631 
Q 2356 759 2429 940 
Q 2503 1122 2503 1338 
Q 2503 1775 2209 2023 
Q 1916 2272 1356 2272 
Q 1266 2272 1166 2269 
Q 1066 2266 966 2261 
Q 866 2256 770 2250 
Q 675 2244 597 2234 
L 750 4481 
L 2822 4481 
L 2822 4019 
L 1194 4019 
L 1103 2703 
Q 1203 2709 1315 2714 
Q 1428 2719 1516 2719 
Q 1872 2719 2153 2625 
Q 2434 2531 2629 2357 
Q 2825 2184 2926 1932 
Q 3028 1681 3028 1369 
z
" transform="scale(0.015625)"/>
       </defs>
       <use xlink:href="#SegoeUI-35"/>
       <use xlink:href="#SegoeUI-30" transform="translate(53.90625 0)"/>
      </g>
     </g>
    </g>
    <g id="xtick_7">
     <g id="line2d_8">
      <g>
       <use xlink:href="#maa63c4fdce" x="762.162" y="377.32" style="stroke: #000000; stroke-width: 0.8"/>
      </g>
     </g>
     <g id="text_7">
      <!-- 60 -->
      <g transform="translate(751.38075 399.12625) scale(0.2 -0.2)">
       <defs>
        <path id="SegoeUI-36" d="M 3194 1422 
Q 3194 1094 3087 819 
Q 2981 544 2793 344 
Q 2606 144 2347 33 
Q 2088 -78 1784 -78 
Q 1447 -78 1180 62 
Q 913 203 727 467 
Q 541 731 444 1112 
Q 347 1494 347 1972 
Q 347 2556 476 3032 
Q 606 3509 845 3848 
Q 1084 4188 1421 4372 
Q 1759 4556 2175 4556 
Q 2638 4556 2919 4428 
L 2919 3944 
Q 2572 4122 2188 4122 
Q 1888 4122 1647 3987 
Q 1406 3853 1234 3608 
Q 1063 3363 970 3016 
Q 878 2669 878 2244 
L 891 2244 
Q 1200 2803 1913 2803 
Q 2206 2803 2442 2703 
Q 2678 2603 2845 2420 
Q 3013 2238 3103 1984 
Q 3194 1731 3194 1422 
z
M 2669 1356 
Q 2669 1591 2609 1778 
Q 2550 1966 2439 2097 
Q 2328 2228 2165 2298 
Q 2003 2369 1797 2369 
Q 1606 2369 1443 2297 
Q 1281 2225 1162 2101 
Q 1044 1978 976 1814 
Q 909 1650 909 1466 
Q 909 1234 975 1032 
Q 1041 831 1159 681 
Q 1278 531 1442 445 
Q 1606 359 1806 359 
Q 2000 359 2159 432 
Q 2319 506 2431 637 
Q 2544 769 2606 951 
Q 2669 1134 2669 1356 
z
" transform="scale(0.015625)"/>
       </defs>
       <use xlink:href="#SegoeUI-36"/>
       <use xlink:href="#SegoeUI-30" transform="translate(53.90625 0)"/>
      </g>
     </g>
    </g>
    <g id="text_8">
     <!-- Iteration -->
     <g transform="translate(368.087875 425.49375) scale(0.24 -0.24)">
      <defs>
       <path id="SegoeUI-49" d="M 1113 0 
L 588 0 
L 588 4481 
L 1113 4481 
L 1113 0 
z
" transform="scale(0.015625)"/>
       <path id="SegoeUI-74" d="M 2003 31 
Q 1822 -69 1525 -69 
Q 684 -69 684 869 
L 684 2763 
L 134 2763 
L 134 3200 
L 684 3200 
L 684 3981 
L 1197 4147 
L 1197 3200 
L 2003 3200 
L 2003 2763 
L 1197 2763 
L 1197 959 
Q 1197 638 1306 500 
Q 1416 363 1669 363 
Q 1863 363 2003 469 
L 2003 31 
z
" transform="scale(0.015625)"/>
       <path id="SegoeUI-65" d="M 3091 1472 
L 831 1472 
Q 844 938 1119 647 
Q 1394 356 1875 356 
Q 2416 356 2869 713 
L 2869 231 
Q 2447 -75 1753 -75 
Q 1075 -75 687 361 
Q 300 797 300 1588 
Q 300 2334 723 2804 
Q 1147 3275 1775 3275 
Q 2403 3275 2747 2869 
Q 3091 2463 3091 1741 
L 3091 1472 
z
M 2566 1906 
Q 2563 2350 2352 2597 
Q 2141 2844 1766 2844 
Q 1403 2844 1150 2584 
Q 897 2325 838 1906 
L 2566 1906 
z
" transform="scale(0.015625)"/>
       <path id="SegoeUI-72" d="M 2188 2681 
Q 2053 2784 1800 2784 
Q 1472 2784 1251 2475 
Q 1031 2166 1031 1631 
L 1031 0 
L 519 0 
L 519 3200 
L 1031 3200 
L 1031 2541 
L 1044 2541 
Q 1153 2878 1378 3067 
Q 1603 3256 1881 3256 
Q 2081 3256 2188 3213 
L 2188 2681 
z
" transform="scale(0.015625)"/>
       <path id="SegoeUI-61" d="M 2809 0 
L 2297 0 
L 2297 500 
L 2284 500 
Q 1950 -75 1300 -75 
Q 822 -75 551 178 
Q 281 431 281 850 
Q 281 1747 1338 1894 
L 2297 2028 
Q 2297 2844 1638 2844 
Q 1059 2844 594 2450 
L 594 2975 
Q 1066 3275 1681 3275 
Q 2809 3275 2809 2081 
L 2809 0 
z
M 2297 1619 
L 1525 1513 
Q 1169 1463 987 1336 
Q 806 1209 806 888 
Q 806 653 973 504 
Q 1141 356 1419 356 
Q 1800 356 2048 623 
Q 2297 891 2297 1300 
L 2297 1619 
z
" transform="scale(0.015625)"/>
       <path id="SegoeUI-69" d="M 781 4013 
Q 644 4013 547 4106 
Q 450 4200 450 4344 
Q 450 4488 547 4583 
Q 644 4678 781 4678 
Q 922 4678 1020 4583 
Q 1119 4488 1119 4344 
Q 1119 4206 1020 4109 
Q 922 4013 781 4013 
z
M 1031 0 
L 519 0 
L 519 3200 
L 1031 3200 
L 1031 0 
z
" transform="scale(0.015625)"/>
       <path id="SegoeUI-6f" d="M 1856 -75 
Q 1147 -75 723 373 
Q 300 822 300 1563 
Q 300 2369 740 2822 
Q 1181 3275 1931 3275 
Q 2647 3275 3048 2834 
Q 3450 2394 3450 1613 
Q 3450 847 3017 386 
Q 2584 -75 1856 -75 
z
M 1894 2844 
Q 1400 2844 1112 2508 
Q 825 2172 825 1581 
Q 825 1013 1115 684 
Q 1406 356 1894 356 
Q 2391 356 2658 678 
Q 2925 1000 2925 1594 
Q 2925 2194 2658 2519 
Q 2391 2844 1894 2844 
z
" transform="scale(0.015625)"/>
       <path id="SegoeUI-6e" d="M 3175 0 
L 2663 0 
L 2663 1825 
Q 2663 2844 1919 2844 
Q 1534 2844 1282 2555 
Q 1031 2266 1031 1825 
L 1031 0 
L 519 0 
L 519 3200 
L 1031 3200 
L 1031 2669 
L 1044 2669 
Q 1406 3275 2094 3275 
Q 2619 3275 2897 2936 
Q 3175 2597 3175 1956 
L 3175 0 
z
" transform="scale(0.015625)"/>
      </defs>
      <use xlink:href="#SegoeUI-49"/>
      <use xlink:href="#SegoeUI-74" transform="translate(26.611328 0)"/>
      <use xlink:href="#SegoeUI-65" transform="translate(59.748047 0)"/>
      <use xlink:href="#SegoeUI-72" transform="translate(112.042969 0)"/>
      <use xlink:href="#SegoeUI-61" transform="translate(146.808594 0)"/>
      <use xlink:href="#SegoeUI-74" transform="translate(197.6875 0)"/>
      <use xlink:href="#SegoeUI-69" transform="translate(231.574219 0)"/>
      <use xlink:href="#SegoeUI-6f" transform="translate(255.792969 0)"/>
      <use xlink:href="#SegoeUI-6e" transform="translate(314.386719 0)"/>
     </g>
    </g>
   </g>
   <g id="matplotlib.axis_2">
    <g id="ytick_1">
     <g id="line2d_9">
      <defs>
       <path id="mbb5de8bc23" d="M 0 0 
L -3.5 0 
" style="stroke: #000000; stroke-width: 0.8"/>
      </defs>
      <g>
       <use xlink:href="#mbb5de8bc23" x="63.05" y="377.32" style="stroke: #000000; stroke-width: 0.8"/>
      </g>
     </g>
     <g id="text_9">
      <!-- 0 -->
      <g transform="translate(45.26875 384.723125) scale(0.2 -0.2)">
       <use xlink:href="#SegoeUI-30"/>
      </g>
     </g>
    </g>
    <g id="ytick_2">
     <g id="line2d_10">
      <g>
       <use xlink:href="#mbb5de8bc23" x="63.05" y="337.134749" style="stroke: #000000; stroke-width: 0.8"/>
      </g>
     </g>
     <g id="text_10">
      <!-- 2 -->
      <g transform="translate(45.26875 344.537874) scale(0.2 -0.2)">
       <use xlink:href="#SegoeUI-32"/>
      </g>
     </g>
    </g>
    <g id="ytick_3">
     <g id="line2d_11">
      <g>
       <use xlink:href="#mbb5de8bc23" x="63.05" y="296.949498" style="stroke: #000000; stroke-width: 0.8"/>
      </g>
     </g>
     <g id="text_11">
      <!-- 4 -->
      <g transform="translate(45.26875 304.352623) scale(0.2 -0.2)">
       <use xlink:href="#SegoeUI-34"/>
      </g>
     </g>
    </g>
    <g id="ytick_4">
     <g id="line2d_12">
      <g>
       <use xlink:href="#mbb5de8bc23" x="63.05" y="256.764247" style="stroke: #000000; stroke-width: 0.8"/>
      </g>
     </g>
     <g id="text_12">
      <!-- 6 -->
      <g transform="translate(45.26875 264.167372) scale(0.2 -0.2)">
       <use xlink:href="#SegoeUI-36"/>
      </g>
     </g>
    </g>
    <g id="ytick_5">
     <g id="line2d_13">
      <g>
       <use xlink:href="#mbb5de8bc23" x="63.05" y="216.578997" style="stroke: #000000; stroke-width: 0.8"/>
      </g>
     </g>
     <g id="text_13">
      <!-- 8 -->
      <g transform="translate(45.26875 223.982122) scale(0.2 -0.2)">
       <defs>
        <path id="SegoeUI-38" d="M 281 1250 
Q 281 1428 337 1608 
Q 394 1788 498 1944 
Q 603 2100 758 2228 
Q 913 2356 1109 2431 
Q 819 2594 647 2848 
Q 475 3103 475 3413 
Q 475 3659 570 3868 
Q 666 4078 834 4231 
Q 1003 4384 1234 4470 
Q 1466 4556 1734 4556 
Q 2006 4556 2237 4468 
Q 2469 4381 2637 4228 
Q 2806 4075 2900 3865 
Q 2994 3656 2994 3413 
Q 2994 3103 2822 2848 
Q 2650 2594 2366 2431 
Q 2559 2356 2712 2228 
Q 2866 2100 2970 1944 
Q 3075 1788 3131 1608 
Q 3188 1428 3188 1250 
Q 3188 956 3081 712 
Q 2975 469 2783 295 
Q 2591 122 2323 25 
Q 2056 -72 1734 -72 
Q 1416 -72 1150 25 
Q 884 122 690 295 
Q 497 469 389 712 
Q 281 956 281 1250 
z
M 838 1294 
Q 838 1084 902 915 
Q 966 747 1083 628 
Q 1200 509 1367 445 
Q 1534 381 1738 381 
Q 1934 381 2100 447 
Q 2266 513 2386 631 
Q 2506 750 2573 919 
Q 2641 1088 2641 1294 
Q 2641 1481 2577 1645 
Q 2513 1809 2394 1934 
Q 2275 2059 2109 2131 
Q 1944 2203 1738 2203 
Q 1544 2203 1380 2136 
Q 1216 2069 1095 1948 
Q 975 1828 906 1661 
Q 838 1494 838 1294 
z
M 997 3372 
Q 997 3213 1055 3077 
Q 1113 2941 1214 2839 
Q 1316 2738 1450 2680 
Q 1584 2622 1738 2622 
Q 1891 2622 2027 2681 
Q 2163 2741 2263 2842 
Q 2363 2944 2422 3080 
Q 2481 3216 2481 3372 
Q 2481 3534 2423 3671 
Q 2366 3809 2266 3909 
Q 2166 4009 2030 4067 
Q 1894 4125 1738 4125 
Q 1572 4125 1436 4065 
Q 1300 4006 1201 3904 
Q 1103 3803 1050 3665 
Q 997 3528 997 3372 
z
" transform="scale(0.015625)"/>
       </defs>
       <use xlink:href="#SegoeUI-38"/>
      </g>
     </g>
    </g>
    <g id="ytick_6">
     <g id="line2d_14">
      <g>
       <use xlink:href="#mbb5de8bc23" x="63.05" y="176.393746" style="stroke: #000000; stroke-width: 0.8"/>
      </g>
     </g>
     <g id="text_14">
      <!-- 10 -->
      <g transform="translate(34.4875 183.796871) scale(0.2 -0.2)">
       <use xlink:href="#SegoeUI-31"/>
       <use xlink:href="#SegoeUI-30" transform="translate(53.90625 0)"/>
      </g>
     </g>
    </g>
    <g id="ytick_7">
     <g id="line2d_15">
      <g>
       <use xlink:href="#mbb5de8bc23" x="63.05" y="136.208495" style="stroke: #000000; stroke-width: 0.8"/>
      </g>
     </g>
     <g id="text_15">
      <!-- 12 -->
      <g transform="translate(34.4875 143.61162) scale(0.2 -0.2)">
       <use xlink:href="#SegoeUI-31"/>
       <use xlink:href="#SegoeUI-32" transform="translate(53.90625 0)"/>
      </g>
     </g>
    </g>
    <g id="ytick_8">
     <g id="line2d_16">
      <g>
       <use xlink:href="#mbb5de8bc23" x="63.05" y="96.023244" style="stroke: #000000; stroke-width: 0.8"/>
      </g>
     </g>
     <g id="text_16">
      <!-- 14 -->
      <g transform="translate(34.4875 103.426369) scale(0.2 -0.2)">
       <use xlink:href="#SegoeUI-31"/>
       <use xlink:href="#SegoeUI-34" transform="translate(53.90625 0)"/>
      </g>
     </g>
    </g>
    <g id="ytick_9">
     <g id="line2d_17">
      <g>
       <use xlink:href="#mbb5de8bc23" x="63.05" y="55.837993" style="stroke: #000000; stroke-width: 0.8"/>
      </g>
     </g>
     <g id="text_17">
      <!-- 16 -->
      <g transform="translate(34.4875 63.241118) scale(0.2 -0.2)">
       <use xlink:href="#SegoeUI-31"/>
       <use xlink:href="#SegoeUI-36" transform="translate(53.90625 0)"/>
      </g>
     </g>
    </g>
    <g id="ytick_10">
     <g id="line2d_18">
      <g>
       <use xlink:href="#mbb5de8bc23" x="63.05" y="15.652742" style="stroke: #000000; stroke-width: 0.8"/>
      </g>
     </g>
     <g id="text_18">
      <!-- 18 -->
      <g transform="translate(34.4875 23.055867) scale(0.2 -0.2)">
       <use xlink:href="#SegoeUI-31"/>
       <use xlink:href="#SegoeUI-38" transform="translate(53.90625 0)"/>
      </g>
     </g>
    </g>
    <g id="text_19">
     <!-- Node value -->
     <g transform="translate(24.9675 252.515) rotate(-90) scale(0.24 -0.24)">
      <defs>
       <path id="SegoeUI-4e" d="M 4200 0 
L 3556 0 
L 1250 3572 
Q 1163 3706 1106 3853 
L 1088 3853 
Q 1113 3709 1113 3238 
L 1113 0 
L 588 0 
L 588 4481 
L 1269 4481 
L 3513 966 
Q 3653 747 3694 666 
L 3706 666 
Q 3675 859 3675 1325 
L 3675 4481 
L 4200 4481 
L 4200 0 
z
" transform="scale(0.015625)"/>
       <path id="SegoeUI-64" d="M 3250 0 
L 2738 0 
L 2738 544 
L 2725 544 
Q 2369 -75 1625 -75 
Q 1022 -75 661 354 
Q 300 784 300 1525 
Q 300 2319 700 2797 
Q 1100 3275 1766 3275 
Q 2425 3275 2725 2756 
L 2738 2756 
L 2738 4738 
L 3250 4738 
L 3250 0 
z
M 2738 1447 
L 2738 1919 
Q 2738 2306 2481 2575 
Q 2225 2844 1831 2844 
Q 1363 2844 1094 2500 
Q 825 2156 825 1550 
Q 825 997 1083 676 
Q 1341 356 1775 356 
Q 2203 356 2470 665 
Q 2738 975 2738 1447 
z
" transform="scale(0.015625)"/>
       <path id="SegoeUI-20" transform="scale(0.015625)"/>
       <path id="SegoeUI-76" d="M 3034 3200 
L 1759 0 
L 1256 0 
L 44 3200 
L 606 3200 
L 1419 875 
Q 1509 619 1531 428 
L 1544 428 
Q 1575 669 1644 863 
L 2494 3200 
L 3034 3200 
z
" transform="scale(0.015625)"/>
       <path id="SegoeUI-6c" d="M 1031 0 
L 519 0 
L 519 4738 
L 1031 4738 
L 1031 0 
z
" transform="scale(0.015625)"/>
       <path id="SegoeUI-75" d="M 3106 0 
L 2594 0 
L 2594 506 
L 2581 506 
Q 2263 -75 1594 -75 
Q 450 -75 450 1288 
L 450 3200 
L 959 3200 
L 959 1369 
Q 959 356 1734 356 
Q 2109 356 2351 632 
Q 2594 909 2594 1356 
L 2594 3200 
L 3106 3200 
L 3106 0 
z
" transform="scale(0.015625)"/>
      </defs>
      <use xlink:href="#SegoeUI-4e"/>
      <use xlink:href="#SegoeUI-6f" transform="translate(74.804688 0)"/>
      <use xlink:href="#SegoeUI-64" transform="translate(133.398438 0)"/>
      <use xlink:href="#SegoeUI-65" transform="translate(192.285156 0)"/>
      <use xlink:href="#SegoeUI-20" transform="translate(244.580078 0)"/>
      <use xlink:href="#SegoeUI-76" transform="translate(271.972656 0)"/>
      <use xlink:href="#SegoeUI-61" transform="translate(318.123047 0)"/>
      <use xlink:href="#SegoeUI-6c" transform="translate(369.001953 0)"/>
      <use xlink:href="#SegoeUI-75" transform="translate(393.220703 0)"/>
      <use xlink:href="#SegoeUI-65" transform="translate(449.8125 0)"/>
     </g>
    </g>
   </g>
   <g id="line2d_19">
    <path d="M 63.05 357.227375 
L 74.701867 371.292212 
L 86.353733 375.511664 
L 98.0056 376.777499 
L 109.657467 377.15725 
L 121.309333 377.271175 
L 132.9612 377.305352 
L 144.613067 377.315606 
L 156.264933 377.318682 
L 167.9168 377.319605 
L 179.568667 377.319881 
L 191.220533 377.319964 
L 202.8724 377.319989 
L 214.524267 377.319997 
L 226.176133 377.319999 
L 237.828 377.32 
L 249.479867 377.32 
L 261.131733 377.32 
L 272.7836 377.32 
L 284.435467 377.32 
L 296.087333 377.32 
L 307.7392 377.32 
L 319.391067 377.32 
L 331.042933 377.32 
L 342.6948 377.32 
L 354.346667 377.32 
L 365.998533 377.32 
L 377.6504 377.32 
L 389.302267 377.32 
L 400.954133 377.32 
L 412.606 377.32 
L 424.257867 377.32 
L 435.909733 377.32 
L 447.5616 377.32 
L 459.213467 377.32 
L 470.865333 377.32 
L 482.5172 377.32 
L 494.169067 377.32 
L 505.820933 377.32 
L 517.4728 377.32 
L 529.124667 377.32 
L 540.776533 377.32 
L 552.4284 377.32 
L 564.080267 377.32 
L 575.732133 377.32 
L 587.384 377.32 
L 599.035867 377.32 
L 610.687733 377.32 
L 622.3396 377.32 
L 633.991467 377.32 
L 645.643333 377.32 
L 657.2952 377.32 
L 668.947067 377.32 
L 680.598933 377.32 
L 692.2508 377.32 
L 703.902667 377.32 
L 715.554533 377.32 
L 727.2064 377.32 
L 738.858267 377.32 
L 750.510133 377.32 
L 762.162 377.32 
" clip-path="url(#pd740ddceee)" style="fill: none; stroke: #e69f00; stroke-width: 2; stroke-linecap: round"/>
   </g>
   <g id="line2d_20">
    <path d="M 63.05 357.227375 
L 74.701867 357.227375 
L 86.353733 324.40942 
L 98.0056 220.798448 
L 109.657467 189.715156 
L 121.309333 180.390169 
L 132.9612 177.592673 
L 144.613067 176.753424 
L 156.264933 176.501649 
L 167.9168 176.426117 
L 179.568667 176.403457 
L 191.220533 176.396659 
L 202.8724 176.39462 
L 214.524267 176.394008 
L 226.176133 176.393824 
L 237.828 176.393769 
L 249.479867 176.393753 
L 261.131733 176.393748 
L 272.7836 176.393746 
L 284.435467 176.393746 
L 296.087333 176.393746 
L 307.7392 176.393746 
L 319.391067 176.393746 
L 331.042933 176.393746 
L 342.6948 176.393746 
L 354.346667 176.393746 
L 365.998533 176.393746 
L 377.6504 176.393746 
L 389.302267 176.393746 
L 400.954133 176.393746 
L 412.606 176.393746 
L 424.257867 176.393746 
L 435.909733 176.393746 
L 447.5616 176.393746 
L 459.213467 176.393746 
L 470.865333 176.393746 
L 482.5172 176.393746 
L 494.169067 176.393746 
L 505.820933 176.393746 
L 517.4728 176.393746 
L 529.124667 176.393746 
L 540.776533 176.393746 
L 552.4284 176.393746 
L 564.080267 176.393746 
L 575.732133 176.393746 
L 587.384 176.393746 
L 599.035867 176.393746 
L 610.687733 176.393746 
L 622.3396 176.393746 
L 633.991467 176.393746 
L 645.643333 176.393746 
L 657.2952 176.393746 
L 668.947067 176.393746 
L 680.598933 176.393746 
L 692.2508 176.393746 
L 703.902667 176.393746 
L 715.554533 176.393746 
L 727.2064 176.393746 
L 738.858267 176.393746 
L 750.510133 176.393746 
L 762.162 176.393746 
" clip-path="url(#pd740ddceee)" style="fill: none; stroke: #56b4e9; stroke-width: 2; stroke-linecap: round"/>
   </g>
   <g id="line2d_21">
    <path d="M 63.05 357.227375 
L 74.701867 357.227375 
L 86.353733 324.40942 
L 98.0056 220.798448 
L 109.657467 189.715156 
L 121.309333 180.390169 
L 132.9612 177.592673 
L 144.613067 176.753424 
L 156.264933 176.501649 
L 167.9168 176.426117 
L 179.568667 176.403457 
L 191.220533 176.396659 
L 202.8724 176.39462 
L 214.524267 176.394008 
L 226.176133 176.393824 
L 237.828 176.393769 
L 249.479867 176.393753 
L 261.131733 176.393748 
L 272.7836 176.393746 
L 284.435467 176.393746 
L 296.087333 176.393746 
L 307.7392 176.393746 
L 319.391067 176.393746 
L 331.042933 176.393746 
L 342.6948 176.393746 
L 354.346667 176.393746 
L 365.998533 176.393746 
L 377.6504 176.393746 
L 389.302267 176.393746 
L 400.954133 176.393746 
L 412.606 176.393746 
L 424.257867 176.393746 
L 435.909733 176.393746 
L 447.5616 176.393746 
L 459.213467 176.393746 
L 470.865333 176.393746 
L 482.5172 176.393746 
L 494.169067 176.393746 
L 505.820933 176.393746 
L 517.4728 176.393746 
L 529.124667 176.393746 
L 540.776533 176.393746 
L 552.4284 176.393746 
L 564.080267 176.393746 
L 575.732133 176.393746 
L 587.384 176.393746 
L 599.035867 176.393746 
L 610.687733 176.393746 
L 622.3396 176.393746 
L 633.991467 176.393746 
L 645.643333 176.393746 
L 657.2952 176.393746 
L 668.947067 176.393746 
L 680.598933 176.393746 
L 692.2508 176.393746 
L 703.902667 176.393746 
L 715.554533 176.393746 
L 727.2064 176.393746 
L 738.858267 176.393746 
L 750.510133 176.393746 
L 762.162 176.393746 
" clip-path="url(#pd740ddceee)" style="fill: none; stroke: #009e73; stroke-width: 2; stroke-linecap: round"/>
   </g>
   <g id="line2d_22">
    <path d="M 63.05 357.227375 
L 74.701867 357.227375 
L 86.353733 357.227375 
L 98.0056 365.951135 
L 109.657467 372.103841 
L 121.309333 374.248797 
L 132.9612 374.963613 
L 144.613067 375.198157 
L 156.264933 375.274441 
L 167.9168 375.299093 
L 179.568667 375.307017 
L 191.220533 375.309553 
L 202.8724 375.310362 
L 214.524267 375.310619 
L 226.176133 375.3107 
L 237.828 375.310726 
L 249.479867 375.310734 
L 261.131733 375.310736 
L 272.7836 375.310737 
L 284.435467 375.310737 
L 296.087333 375.310737 
L 307.7392 375.310737 
L 319.391067 375.310737 
L 331.042933 375.310737 
L 342.6948 375.310737 
L 354.346667 375.310737 
L 365.998533 375.310737 
L 377.6504 375.310737 
L 389.302267 375.310737 
L 400.954133 375.310737 
L 412.606 375.310737 
L 424.257867 375.310737 
L 435.909733 375.310737 
L 447.5616 375.310737 
L 459.213467 375.310737 
L 470.865333 375.310737 
L 482.5172 375.310737 
L 494.169067 375.310737 
L 505.820933 375.310737 
L 517.4728 375.310737 
L 529.124667 375.310737 
L 540.776533 375.310737 
L 552.4284 375.310737 
L 564.080267 375.310737 
L 575.732133 375.310737 
L 587.384 375.310737 
L 599.035867 375.310737 
L 610.687733 375.310737 
L 622.3396 375.310737 
L 633.991467 375.310737 
L 645.643333 375.310737 
L 657.2952 375.310737 
L 668.947067 375.310737 
L 680.598933 375.310737 
L 692.2508 375.310737 
L 703.902667 375.310737 
L 715.554533 375.310737 
L 727.2064 375.310737 
L 738.858267 375.310737 
L 750.510133 375.310737 
L 762.162 375.310737 
" clip-path="url(#pd740ddceee)" style="fill: none; stroke: #f0e442; stroke-width: 2; stroke-linecap: round"/>
   </g>
   <g id="line2d_23">
    <path d="M 63.05 357.227375 
L 74.701867 357.227375 
L 86.353733 357.227375 
L 98.0056 369.263955 
L 109.657467 374.711487 
L 121.309333 376.434528 
L 132.9612 376.976074 
L 144.613067 377.147148 
L 156.264933 377.201425 
L 167.9168 377.218683 
L 179.568667 377.224175 
L 191.220533 377.225923 
L 202.8724 377.226479 
L 214.524267 377.226656 
L 226.176133 377.226712 
L 237.828 377.22673 
L 249.479867 377.226736 
L 261.131733 377.226737 
L 272.7836 377.226738 
L 284.435467 377.226738 
L 296.087333 377.226738 
L 307.7392 377.226738 
L 319.391067 377.226738 
L 331.042933 377.226738 
L 342.6948 377.226738 
L 354.346667 377.226738 
L 365.998533 377.226738 
L 377.6504 377.226738 
L 389.302267 377.226738 
L 400.954133 377.226738 
L 412.606 377.226738 
L 424.257867 377.226738 
L 435.909733 377.226738 
L 447.5616 377.226738 
L 459.213467 377.226738 
L 470.865333 377.226738 
L 482.5172 377.226738 
L 494.169067 377.226738 
L 505.820933 377.226738 
L 517.4728 377.226738 
L 529.124667 377.226738 
L 540.776533 377.226738 
L 552.4284 377.226738 
L 564.080267 377.226738 
L 575.732133 377.226738 
L 587.384 377.226738 
L 599.035867 377.226738 
L 610.687733 377.226738 
L 622.3396 377.226738 
L 633.991467 377.226738 
L 645.643333 377.226738 
L 657.2952 377.226738 
L 668.947067 377.226738 
L 680.598933 377.226738 
L 692.2508 377.226738 
L 703.902667 377.226738 
L 715.554533 377.226738 
L 727.2064 377.226738 
L 738.858267 377.226738 
L 750.510133 377.226738 
L 762.162 377.226738 
" clip-path="url(#pd740ddceee)" style="fill: none; stroke: #0072b2; stroke-width: 2; stroke-linecap: round"/>
   </g>
   <g id="line2d_24">
    <path d="M 63.05 357.227375 
L 74.701867 357.227375 
L 86.353733 357.227375 
L 98.0056 357.227375 
L 109.657467 362.386322 
L 121.309333 367.772174 
L 132.9612 371.503058 
L 144.613067 373.734786 
L 156.264933 374.837952 
L 167.9168 375.168902 
L 179.568667 375.268187 
L 191.220533 375.297972 
L 202.8724 375.306908 
L 214.524267 375.309589 
L 226.176133 375.310393 
L 237.828 375.310634 
L 249.479867 375.310706 
L 261.131733 375.310728 
L 272.7836 375.310735 
L 284.435467 375.310737 
L 296.087333 375.310737 
L 307.7392 375.310737 
L 319.391067 375.310737 
L 331.042933 375.310737 
L 342.6948 375.310737 
L 354.346667 375.310737 
L 365.998533 375.310737 
L 377.6504 375.310737 
L 389.302267 375.310737 
L 400.954133 375.310737 
L 412.606 375.310737 
L 424.257867 375.310737 
L 435.909733 375.310737 
L 447.5616 375.310737 
L 459.213467 375.310737 
L 470.865333 375.310737 
L 482.5172 375.310737 
L 494.169067 375.310737 
L 505.820933 375.310737 
L 517.4728 375.310737 
L 529.124667 375.310737 
L 540.776533 375.310737 
L 552.4284 375.310737 
L 564.080267 375.310737 
L 575.732133 375.310737 
L 587.384 375.310737 
L 599.035867 375.310737 
L 610.687733 375.310737 
L 622.3396 375.310737 
L 633.991467 375.310737 
L 645.643333 375.310737 
L 657.2952 375.310737 
L 668.947067 375.310737 
L 680.598933 375.310737 
L 692.2508 375.310737 
L 703.902667 375.310737 
L 715.554533 375.310737 
L 727.2064 375.310737 
L 738.858267 375.310737 
L 750.510133 375.310737 
L 762.162 375.310737 
" clip-path="url(#pd740ddceee)" style="fill: none; stroke: #d55e00; stroke-width: 2; stroke-linecap: round"/>
   </g>
   <g id="line2d_25">
    <path d="M 63.05 357.227375 
L 74.701867 357.227375 
L 86.353733 357.227375 
L 98.0056 357.227375 
L 109.657467 357.227375 
L 121.309333 359.166709 
L 132.9612 362.178548 
L 144.613067 365.209867 
L 156.264933 367.745763 
L 167.9168 369.504378 
L 179.568667 370.373314 
L 191.220533 370.741454 
L 202.8724 370.884638 
L 214.524267 370.937463 
L 226.176133 370.956275 
L 237.828 370.962809 
L 249.479867 370.965036 
L 261.131733 370.965784 
L 272.7836 370.966033 
L 284.435467 370.966114 
L 296.087333 370.966141 
L 307.7392 370.96615 
L 319.391067 370.966153 
L 331.042933 370.966154 
L 342.6948 370.966154 
L 354.346667 370.966154 
L 365.998533 370.966154 
L 377.6504 370.966154 
L 389.302267 370.966154 
L 400.954133 370.966154 
L 412.606 370.966154 
L 424.257867 370.966154 
L 435.909733 370.966154 
L 447.5616 370.966154 
L 459.213467 370.966154 
L 470.865333 370.966154 
L 482.5172 370.966154 
L 494.169067 370.966154 
L 505.820933 370.966154 
L 517.4728 370.966154 
L 529.124667 370.966154 
L 540.776533 370.966154 
L 552.4284 370.966154 
L 564.080267 370.966154 
L 575.732133 370.966154 
L 587.384 370.966154 
L 599.035867 370.966154 
L 610.687733 370.966154 
L 622.3396 370.966154 
L 633.991467 370.966154 
L 645.643333 370.966154 
L 657.2952 370.966154 
L 668.947067 370.966154 
L 680.598933 370.966154 
L 692.2508 370.966154 
L 703.902667 370.966154 
L 715.554533 370.966154 
L 727.2064 370.966154 
L 738.858267 370.966154 
L 750.510133 370.966154 
L 762.162 370.966154 
" clip-path="url(#pd740ddceee)" style="fill: none; stroke: #cc79a7; stroke-width: 2; stroke-linecap: round"/>
   </g>
   <g id="line2d_26">
    <path d="M 63.05 357.227375 
L 74.701867 357.227375 
L 86.353733 357.227375 
L 98.0056 357.227375 
L 109.657467 357.227375 
L 121.309333 357.227375 
L 132.9612 357.923362 
L 144.613067 359.291445 
L 156.264933 360.992233 
L 167.9168 362.712805 
L 179.568667 364.165851 
L 191.220533 365.103761 
L 202.8724 365.607251 
L 214.524267 365.846362 
L 226.176133 365.950832 
L 237.828 365.993864 
L 249.479867 366.010838 
L 261.131733 366.017316 
L 272.7836 366.019725 
L 284.435467 366.020603 
L 296.087333 366.020917 
L 307.7392 366.021028 
L 319.391067 366.021066 
L 331.042933 366.02108 
L 342.6948 366.021084 
L 354.346667 366.021086 
L 365.998533 366.021086 
L 377.6504 366.021086 
L 389.302267 366.021086 
L 400.954133 366.021086 
L 412.606 366.021086 
L 424.257867 366.021086 
L 435.909733 366.021086 
L 447.5616 366.021086 
L 459.213467 366.021086 
L 470.865333 366.021086 
L 482.5172 366.021086 
L 494.169067 366.021086 
L 505.820933 366.021086 
L 517.4728 366.021086 
L 529.124667 366.021086 
L 540.776533 366.021086 
L 552.4284 366.021086 
L 564.080267 366.021086 
L 575.732133 366.021086 
L 587.384 366.021086 
L 599.035867 366.021086 
L 610.687733 366.021086 
L 622.3396 366.021086 
L 633.991467 366.021086 
L 645.643333 366.021086 
L 657.2952 366.021086 
L 668.947067 366.021086 
L 680.598933 366.021086 
L 692.2508 366.021086 
L 703.902667 366.021086 
L 715.554533 366.021086 
L 727.2064 366.021086 
L 738.858267 366.021086 
L 750.510133 366.021086 
L 762.162 366.021086 
" clip-path="url(#pd740ddceee)" style="fill: none; stroke: #f5c710; stroke-width: 2; stroke-linecap: round"/>
   </g>
   <g id="line2d_27">
    <path d="M 63.05 357.227375 
L 74.701867 357.227375 
L 86.353733 357.227375 
L 98.0056 354.222119 
L 109.657467 349.185443 
L 121.309333 346.892115 
L 132.9612 345.989758 
L 144.613067 345.656328 
L 156.264933 345.537619 
L 167.9168 345.496415 
L 179.568667 345.482377 
L 191.220533 345.477663 
L 202.8724 345.476098 
L 214.524267 345.475583 
L 226.176133 345.475415 
L 237.828 345.475361 
L 249.479867 345.475343 
L 261.131733 345.475337 
L 272.7836 345.475336 
L 284.435467 345.475335 
L 296.087333 345.475335 
L 307.7392 345.475335 
L 319.391067 345.475335 
L 331.042933 345.475335 
L 342.6948 345.475335 
L 354.346667 345.475335 
L 365.998533 345.475335 
L 377.6504 345.475335 
L 389.302267 345.475335 
L 400.954133 345.475335 
L 412.606 345.475335 
L 424.257867 345.475335 
L 435.909733 345.475335 
L 447.5616 345.475335 
L 459.213467 345.475335 
L 470.865333 345.475335 
L 482.5172 345.475335 
L 494.169067 345.475335 
L 505.820933 345.475335 
L 517.4728 345.475335 
L 529.124667 345.475335 
L 540.776533 345.475335 
L 552.4284 345.475335 
L 564.080267 345.475335 
L 575.732133 345.475335 
L 587.384 345.475335 
L 599.035867 345.475335 
L 610.687733 345.475335 
L 622.3396 345.475335 
L 633.991467 345.475335 
L 645.643333 345.475335 
L 657.2952 345.475335 
L 668.947067 345.475335 
L 680.598933 345.475335 
L 692.2508 345.475335 
L 703.902667 345.475335 
L 715.554533 345.475335 
L 727.2064 345.475335 
L 738.858267 345.475335 
L 750.510133 345.475335 
L 762.162 345.475335 
" clip-path="url(#pd740ddceee)" style="fill: none; stroke: #999999; stroke-width: 2; stroke-linecap: round"/>
   </g>
   <g id="line2d_28">
    <path d="M 63.05 357.227375 
L 74.701867 357.227375 
L 86.353733 357.227375 
L 98.0056 357.227375 
L 109.657467 336.213024 
L 121.309333 256.650487 
L 132.9612 200.470768 
L 144.613067 183.616852 
L 156.264933 178.560678 
L 167.9168 177.043825 
L 179.568667 176.58877 
L 191.220533 176.452253 
L 202.8724 176.411298 
L 214.524267 176.399011 
L 226.176133 176.395325 
L 237.828 176.39422 
L 249.479867 176.393888 
L 261.131733 176.393788 
L 272.7836 176.393758 
L 284.435467 176.39375 
L 296.087333 176.393747 
L 307.7392 176.393746 
L 319.391067 176.393746 
L 331.042933 176.393746 
L 342.6948 176.393746 
L 354.346667 176.393746 
L 365.998533 176.393746 
L 377.6504 176.393746 
L 389.302267 176.393746 
L 400.954133 176.393746 
L 412.606 176.393746 
L 424.257867 176.393746 
L 435.909733 176.393746 
L 447.5616 176.393746 
L 459.213467 176.393746 
L 470.865333 176.393746 
L 482.5172 176.393746 
L 494.169067 176.393746 
L 505.820933 176.393746 
L 517.4728 176.393746 
L 529.124667 176.393746 
L 540.776533 176.393746 
L 552.4284 176.393746 
L 564.080267 176.393746 
L 575.732133 176.393746 
L 587.384 176.393746 
L 599.035867 176.393746 
L 610.687733 176.393746 
L 622.3396 176.393746 
L 633.991467 176.393746 
L 645.643333 176.393746 
L 657.2952 176.393746 
L 668.947067 176.393746 
L 680.598933 176.393746 
L 692.2508 176.393746 
L 703.902667 176.393746 
L 715.554533 176.393746 
L 727.2064 176.393746 
L 738.858267 176.393746 
L 750.510133 176.393746 
L 762.162 176.393746 
" clip-path="url(#pd740ddceee)" style="fill: none; stroke: #e69f00; stroke-width: 2; stroke-linecap: round"/>
   </g>
   <g id="line2d_29">
    <path d="M 63.05 357.227375 
L 74.701867 357.227375 
L 86.353733 357.227375 
L 98.0056 357.227375 
L 109.657467 335.221342 
L 121.309333 230.970844 
L 132.9612 114.692524 
L 144.613067 61.048258 
L 156.264933 40.079202 
L 167.9168 32.353858 
L 179.568667 29.602001 
L 191.220533 28.644008 
L 202.8724 28.316144 
L 214.524267 28.205417 
L 226.176133 28.16842 
L 237.828 28.156166 
L 249.479867 28.152137 
L 261.131733 28.15082 
L 272.7836 28.150393 
L 284.435467 28.150254 
L 296.087333 28.15021 
L 307.7392 28.150196 
L 319.391067 28.150191 
L 331.042933 28.150189 
L 342.6948 28.150189 
L 354.346667 28.150189 
L 365.998533 28.150189 
L 377.6504 28.150189 
L 389.302267 28.150189 
L 400.954133 28.150189 
L 412.606 28.150189 
L 424.257867 28.150189 
L 435.909733 28.150189 
L 447.5616 28.150189 
L 459.213467 28.150189 
L 470.865333 28.150189 
L 482.5172 28.150189 
L 494.169067 28.150189 
L 505.820933 28.150189 
L 517.4728 28.150189 
L 529.124667 28.150189 
L 540.776533 28.150189 
L 552.4284 28.150189 
L 564.080267 28.150189 
L 575.732133 28.150189 
L 587.384 28.150189 
L 599.035867 28.150189 
L 610.687733 28.150189 
L 622.3396 28.150189 
L 633.991467 28.150189 
L 645.643333 28.150189 
L 657.2952 28.150189 
L 668.947067 28.150189 
L 680.598933 28.150189 
L 692.2508 28.150189 
L 703.902667 28.150189 
L 715.554533 28.150189 
L 727.2064 28.150189 
L 738.858267 28.150189 
L 750.510133 28.150189 
L 762.162 28.150189 
" clip-path="url(#pd740ddceee)" style="fill: none; stroke: #000000; stroke-width: 3; stroke-linecap: round"/>
   </g>
   <g id="patch_3">
    <path d="M 63.05 377.32 
L 63.05 7.2 
" style="fill: none; stroke: #cccccc; stroke-width: 0.8; stroke-linejoin: miter; stroke-linecap: square"/>
   </g>
   <g id="patch_4">
    <path d="M 63.05 377.32 
L 762.162 377.32 
" style="fill: none; stroke: #cccccc; stroke-width: 0.8; stroke-linejoin: miter; stroke-linecap: square"/>
   </g>
   <g id="legend_1">
    <g id="patch_5">
     <path d="M 788.74424 353.801562 
L 977.786428 353.801562 
Q 981.386428 353.801562 981.386428 350.201562 
L 981.386428 34.318438 
Q 981.386428 30.718437 977.786428 30.718437 
L 788.74424 30.718437 
Q 785.14424 30.718437 785.14424 34.318438 
L 785.14424 350.201562 
Q 785.14424 353.801562 788.74424 353.801562 
z
" style="fill: #ffffff; opacity: 0.8; stroke: #cccccc; stroke-linejoin: miter"/>
    </g>
    <g id="line2d_30">
     <path d="M 792.34424 44.944062 
L 810.34424 44.944062 
L 828.34424 44.944062 
" style="fill: none; stroke: #e69f00; stroke-width: 2; stroke-linecap: round"/>
    </g>
    <g id="text_20">
     <!-- MAX2 -->
     <g transform="translate(842.74424 51.244062) scale(0.18 -0.18)">
      <defs>
       <path id="SegoeUI-4d" d="M 5156 0 
L 4634 0 
L 4634 3006 
Q 4634 3363 4678 3878 
L 4666 3878 
Q 4591 3575 4531 3444 
L 3000 0 
L 2744 0 
L 1216 3419 
Q 1150 3569 1081 3878 
L 1069 3878 
Q 1094 3609 1094 3000 
L 1094 0 
L 588 0 
L 588 4481 
L 1281 4481 
L 2656 1356 
Q 2816 997 2863 819 
L 2881 819 
Q 3016 1188 3097 1369 
L 4500 4481 
L 5156 4481 
L 5156 0 
z
" transform="scale(0.015625)"/>
       <path id="SegoeUI-41" d="M 4056 0 
L 3475 0 
L 3000 1256 
L 1100 1256 
L 653 0 
L 69 0 
L 1788 4481 
L 2331 4481 
L 4056 0 
z
M 2828 1728 
L 2125 3638 
Q 2091 3731 2056 3938 
L 2044 3938 
Q 2013 3747 1972 3638 
L 1275 1728 
L 2828 1728 
z
" transform="scale(0.015625)"/>
       <path id="SegoeUI-58" d="M 3681 0 
L 3041 0 
L 2009 1716 
Q 1963 1794 1906 1938 
L 1894 1938 
Q 1863 1866 1788 1716 
L 725 0 
L 81 0 
L 1581 2253 
L 200 4481 
L 844 4481 
L 1759 2906 
Q 1850 2750 1919 2594 
L 1931 2594 
Q 2031 2800 2106 2919 
L 3059 4481 
L 3663 4481 
L 2253 2259 
L 3681 0 
z
" transform="scale(0.015625)"/>
      </defs>
      <use xlink:href="#SegoeUI-4d"/>
      <use xlink:href="#SegoeUI-41" transform="translate(89.794922 0)"/>
      <use xlink:href="#SegoeUI-58" transform="translate(154.296875 0)"/>
      <use xlink:href="#SegoeUI-32" transform="translate(213.28125 0)"/>
     </g>
    </g>
    <g id="line2d_31">
     <path d="M 792.34424 71.409687 
L 810.34424 71.409687 
L 828.34424 71.409687 
" style="fill: none; stroke: #56b4e9; stroke-width: 2; stroke-linecap: round"/>
    </g>
    <g id="text_21">
     <!-- SMXL678 -->
     <g transform="translate(842.74424 77.709687) scale(0.18 -0.18)">
      <defs>
       <path id="SegoeUI-53" d="M 378 181 
L 378 800 
Q 484 706 632 631 
Q 781 556 945 504 
Q 1109 453 1275 425 
Q 1441 397 1581 397 
Q 2066 397 2305 576 
Q 2544 756 2544 1094 
Q 2544 1275 2464 1409 
Q 2384 1544 2243 1655 
Q 2103 1766 1911 1867 
Q 1719 1969 1497 2081 
Q 1263 2200 1059 2322 
Q 856 2444 706 2591 
Q 556 2738 470 2923 
Q 384 3109 384 3359 
Q 384 3666 518 3892 
Q 653 4119 872 4266 
Q 1091 4413 1370 4484 
Q 1650 4556 1941 4556 
Q 2603 4556 2906 4397 
L 2906 3806 
Q 2509 4081 1888 4081 
Q 1716 4081 1544 4045 
Q 1372 4009 1237 3928 
Q 1103 3847 1018 3719 
Q 934 3591 934 3406 
Q 934 3234 998 3109 
Q 1063 2984 1188 2881 
Q 1313 2778 1492 2681 
Q 1672 2584 1906 2469 
Q 2147 2350 2362 2219 
Q 2578 2088 2740 1928 
Q 2903 1769 2998 1575 
Q 3094 1381 3094 1131 
Q 3094 800 2964 570 
Q 2834 341 2614 197 
Q 2394 53 2106 -11 
Q 1819 -75 1500 -75 
Q 1394 -75 1237 -58 
Q 1081 -41 918 -8 
Q 756 25 611 73 
Q 466 122 378 181 
z
" transform="scale(0.015625)"/>
       <path id="SegoeUI-4c" d="M 2913 0 
L 588 0 
L 588 4481 
L 1113 4481 
L 1113 475 
L 2913 475 
L 2913 0 
z
" transform="scale(0.015625)"/>
       <path id="SegoeUI-37" d="M 3156 4184 
Q 3053 4006 2908 3740 
Q 2763 3475 2600 3144 
Q 2438 2813 2269 2431 
Q 2100 2050 1953 1644 
Q 1806 1238 1695 820 
Q 1584 403 1534 0 
L 984 0 
Q 1041 400 1158 817 
Q 1275 1234 1423 1636 
Q 1572 2038 1737 2409 
Q 1903 2781 2059 3093 
Q 2216 3406 2345 3645 
Q 2475 3884 2553 4019 
L 306 4019 
L 306 4481 
L 3156 4481 
L 3156 4184 
z
" transform="scale(0.015625)"/>
      </defs>
      <use xlink:href="#SegoeUI-53"/>
      <use xlink:href="#SegoeUI-4d" transform="translate(53.125 0)"/>
      <use xlink:href="#SegoeUI-58" transform="translate(142.919922 0)"/>
      <use xlink:href="#SegoeUI-4c" transform="translate(201.904297 0)"/>
      <use xlink:href="#SegoeUI-36" transform="translate(248.974609 0)"/>
      <use xlink:href="#SegoeUI-37" transform="translate(302.880859 0)"/>
      <use xlink:href="#SegoeUI-38" transform="translate(356.787109 0)"/>
     </g>
    </g>
    <g id="line2d_32">
     <path d="M 792.34424 97.875312 
L 810.34424 97.875312 
L 828.34424 97.875312 
" style="fill: none; stroke: #009e73; stroke-width: 2; stroke-linecap: round"/>
    </g>
    <g id="text_22">
     <!-- BES1 -->
     <g transform="translate(842.74424 104.175312) scale(0.18 -0.18)">
      <defs>
       <path id="SegoeUI-42" d="M 588 0 
L 588 4481 
L 1863 4481 
Q 2444 4481 2784 4197 
Q 3125 3913 3125 3456 
Q 3125 3075 2919 2794 
Q 2713 2513 2350 2394 
L 2350 2381 
Q 2803 2328 3075 2039 
Q 3347 1750 3347 1288 
Q 3347 713 2934 356 
Q 2522 0 1894 0 
L 588 0 
z
M 1113 4006 
L 1113 2559 
L 1650 2559 
Q 2081 2559 2328 2767 
Q 2575 2975 2575 3353 
Q 2575 4006 1716 4006 
L 1113 4006 
z
M 1113 2088 
L 1113 475 
L 1825 475 
Q 2288 475 2542 694 
Q 2797 913 2797 1294 
Q 2797 2088 1716 2088 
L 1113 2088 
z
" transform="scale(0.015625)"/>
       <path id="SegoeUI-45" d="M 2963 0 
L 588 0 
L 588 4481 
L 2863 4481 
L 2863 4006 
L 1113 4006 
L 1113 2516 
L 2731 2516 
L 2731 2044 
L 1113 2044 
L 1113 475 
L 2963 475 
L 2963 0 
z
" transform="scale(0.015625)"/>
      </defs>
      <use xlink:href="#SegoeUI-42"/>
      <use xlink:href="#SegoeUI-45" transform="translate(57.324219 0)"/>
      <use xlink:href="#SegoeUI-53" transform="translate(107.910156 0)"/>
      <use xlink:href="#SegoeUI-31" transform="translate(161.035156 0)"/>
     </g>
    </g>
    <g id="line2d_33">
     <path d="M 792.34424 124.340937 
L 810.34424 124.340937 
L 828.34424 124.340937 
" style="fill: none; stroke: #f0e442; stroke-width: 2; stroke-linecap: round"/>
    </g>
    <g id="text_23">
     <!-- SPL9 -->
     <g transform="translate(842.74424 130.640937) scale(0.18 -0.18)">
      <defs>
       <path id="SegoeUI-50" d="M 1113 1694 
L 1113 0 
L 588 0 
L 588 4481 
L 1819 4481 
Q 2538 4481 2933 4131 
Q 3328 3781 3328 3144 
Q 3328 2506 2889 2100 
Q 2450 1694 1703 1694 
L 1113 1694 
z
M 1113 4006 
L 1113 2169 
L 1663 2169 
Q 2206 2169 2492 2417 
Q 2778 2666 2778 3119 
Q 2778 4006 1728 4006 
L 1113 4006 
z
" transform="scale(0.015625)"/>
       <path id="SegoeUI-39" d="M 3138 2509 
Q 3138 1894 3016 1414 
Q 2894 934 2659 601 
Q 2425 269 2087 95 
Q 1750 -78 1319 -78 
Q 875 -78 538 78 
L 538 569 
Q 909 359 1331 359 
Q 1634 359 1873 484 
Q 2113 609 2278 848 
Q 2444 1088 2531 1438 
Q 2619 1788 2619 2241 
L 2606 2241 
Q 2319 1663 1606 1663 
Q 1319 1663 1078 1764 
Q 838 1866 663 2052 
Q 488 2238 391 2494 
Q 294 2750 294 3059 
Q 294 3391 401 3666 
Q 509 3941 701 4139 
Q 894 4338 1158 4447 
Q 1422 4556 1734 4556 
Q 2072 4556 2333 4420 
Q 2594 4284 2772 4023 
Q 2950 3763 3044 3381 
Q 3138 3000 3138 2509 
z
M 2584 2969 
Q 2584 3228 2517 3440 
Q 2450 3653 2331 3804 
Q 2213 3956 2048 4039 
Q 1884 4122 1691 4122 
Q 1506 4122 1347 4048 
Q 1188 3975 1070 3842 
Q 953 3709 886 3526 
Q 819 3344 819 3128 
Q 819 2891 883 2703 
Q 947 2516 1065 2386 
Q 1184 2256 1351 2187 
Q 1519 2119 1722 2119 
Q 1900 2119 2058 2186 
Q 2216 2253 2333 2367 
Q 2450 2481 2517 2636 
Q 2584 2791 2584 2969 
z
" transform="scale(0.015625)"/>
      </defs>
      <use xlink:href="#SegoeUI-53"/>
      <use xlink:href="#SegoeUI-50" transform="translate(53.125 0)"/>
      <use xlink:href="#SegoeUI-4c" transform="translate(109.130859 0)"/>
      <use xlink:href="#SegoeUI-39" transform="translate(156.201172 0)"/>
     </g>
    </g>
    <g id="line2d_34">
     <path d="M 792.34424 150.806562 
L 810.34424 150.806562 
L 828.34424 150.806562 
" style="fill: none; stroke: #0072b2; stroke-width: 2; stroke-linecap: round"/>
    </g>
    <g id="text_24">
     <!-- BRC1 -->
     <g transform="translate(842.74424 157.106562) scale(0.18 -0.18)">
      <defs>
       <path id="SegoeUI-52" d="M 3800 0 
L 3175 0 
L 2425 1256 
Q 2322 1431 2225 1554 
Q 2128 1678 2026 1756 
Q 1925 1834 1808 1870 
Q 1691 1906 1544 1906 
L 1113 1906 
L 1113 0 
L 588 0 
L 588 4481 
L 1925 4481 
Q 2219 4481 2467 4407 
Q 2716 4334 2898 4184 
Q 3081 4034 3184 3811 
Q 3288 3588 3288 3288 
Q 3288 3053 3217 2858 
Q 3147 2663 3017 2509 
Q 2888 2356 2705 2248 
Q 2522 2141 2294 2081 
L 2294 2069 
Q 2406 2019 2489 1955 
Q 2572 1891 2647 1803 
Q 2722 1716 2795 1605 
Q 2869 1494 2959 1347 
L 3800 0 
z
M 1113 4006 
L 1113 2381 
L 1825 2381 
Q 2022 2381 2189 2440 
Q 2356 2500 2478 2611 
Q 2600 2722 2669 2883 
Q 2738 3044 2738 3244 
Q 2738 3603 2505 3804 
Q 2272 4006 1831 4006 
L 1113 4006 
z
" transform="scale(0.015625)"/>
       <path id="SegoeUI-43" d="M 3638 188 
Q 3141 -75 2400 -75 
Q 1444 -75 869 540 
Q 294 1156 294 2156 
Q 294 3231 941 3893 
Q 1588 4556 2581 4556 
Q 3219 4556 3638 4372 
L 3638 3813 
Q 3156 4081 2575 4081 
Q 1803 4081 1323 3565 
Q 844 3050 844 2188 
Q 844 1369 1292 883 
Q 1741 397 2469 397 
Q 3144 397 3638 697 
L 3638 188 
z
" transform="scale(0.015625)"/>
      </defs>
      <use xlink:href="#SegoeUI-42"/>
      <use xlink:href="#SegoeUI-52" transform="translate(57.324219 0)"/>
      <use xlink:href="#SegoeUI-43" transform="translate(115.763672 0)"/>
      <use xlink:href="#SegoeUI-31" transform="translate(177.677734 0)"/>
     </g>
    </g>
    <g id="line2d_35">
     <path d="M 792.34424 177.272187 
L 810.34424 177.272187 
L 828.34424 177.272187 
" style="fill: none; stroke: #d55e00; stroke-width: 2; stroke-linecap: round"/>
    </g>
    <g id="text_25">
     <!-- HB21 -->
     <g transform="translate(842.74424 183.572187) scale(0.18 -0.18)">
      <defs>
       <path id="SegoeUI-48" d="M 3956 0 
L 3431 0 
L 3431 2044 
L 1113 2044 
L 1113 0 
L 588 0 
L 588 4481 
L 1113 4481 
L 1113 2516 
L 3431 2516 
L 3431 4481 
L 3956 4481 
L 3956 0 
z
" transform="scale(0.015625)"/>
      </defs>
      <use xlink:href="#SegoeUI-48"/>
      <use xlink:href="#SegoeUI-42" transform="translate(70.996094 0)"/>
      <use xlink:href="#SegoeUI-32" transform="translate(128.320312 0)"/>
      <use xlink:href="#SegoeUI-31" transform="translate(182.226562 0)"/>
     </g>
    </g>
    <g id="line2d_36">
     <path d="M 792.34424 203.737812 
L 810.34424 203.737812 
L 828.34424 203.737812 
" style="fill: none; stroke: #cc79a7; stroke-width: 2; stroke-linecap: round"/>
    </g>
    <g id="text_26">
     <!-- NCED3 -->
     <g transform="translate(842.74424 210.037812) scale(0.18 -0.18)">
      <defs>
       <path id="SegoeUI-44" d="M 588 0 
L 588 4481 
L 1825 4481 
Q 4194 4481 4194 2297 
Q 4194 1259 3536 629 
Q 2878 0 1775 0 
L 588 0 
z
M 1113 4006 
L 1113 475 
L 1781 475 
Q 2663 475 3153 947 
Q 3644 1419 3644 2284 
Q 3644 4006 1813 4006 
L 1113 4006 
z
" transform="scale(0.015625)"/>
      </defs>
      <use xlink:href="#SegoeUI-4e"/>
      <use xlink:href="#SegoeUI-43" transform="translate(74.804688 0)"/>
      <use xlink:href="#SegoeUI-45" transform="translate(136.71875 0)"/>
      <use xlink:href="#SegoeUI-44" transform="translate(187.304688 0)"/>
      <use xlink:href="#SegoeUI-33" transform="translate(257.421875 0)"/>
     </g>
    </g>
    <g id="line2d_37">
     <path d="M 792.34424 230.203437 
L 810.34424 230.203437 
L 828.34424 230.203437 
" style="fill: none; stroke: #f5c710; stroke-width: 2; stroke-linecap: round"/>
    </g>
    <g id="text_27">
     <!-- ABA -->
     <g transform="translate(842.74424 236.503437) scale(0.18 -0.18)">
      <use xlink:href="#SegoeUI-41"/>
      <use xlink:href="#SegoeUI-42" transform="translate(64.501953 0)"/>
      <use xlink:href="#SegoeUI-41" transform="translate(121.826172 0)"/>
     </g>
    </g>
    <g id="line2d_38">
     <path d="M 792.34424 256.669062 
L 810.34424 256.669062 
L 828.34424 256.669062 
" style="fill: none; stroke: #999999; stroke-width: 2; stroke-linecap: round"/>
    </g>
    <g id="text_28">
     <!-- PIN1 -->
     <g transform="translate(842.74424 262.969062) scale(0.18 -0.18)">
      <use xlink:href="#SegoeUI-50"/>
      <use xlink:href="#SegoeUI-49" transform="translate(56.005859 0)"/>
      <use xlink:href="#SegoeUI-4e" transform="translate(82.617188 0)"/>
      <use xlink:href="#SegoeUI-31" transform="translate(157.421875 0)"/>
     </g>
    </g>
    <g id="line2d_39">
     <path d="M 792.34424 283.134687 
L 810.34424 283.134687 
L 828.34424 283.134687 
" style="fill: none; stroke: #e69f00; stroke-width: 2; stroke-linecap: round"/>
    </g>
    <g id="text_29">
     <!-- PIN3 -->
     <g transform="translate(842.74424 289.434687) scale(0.18 -0.18)">
      <use xlink:href="#SegoeUI-50"/>
      <use xlink:href="#SegoeUI-49" transform="translate(56.005859 0)"/>
      <use xlink:href="#SegoeUI-4e" transform="translate(82.617188 0)"/>
      <use xlink:href="#SegoeUI-33" transform="translate(157.421875 0)"/>
     </g>
    </g>
    <g id="line2d_40">
     <path d="M 792.34424 309.600312 
L 810.34424 309.600312 
L 828.34424 309.600312 
" style="fill: none; stroke: #000000; stroke-width: 3; stroke-linecap: round"/>
    </g>
    <g id="text_30">
     <!-- Shoot Branching -->
     <g transform="translate(842.74424 315.900312) scale(0.18 -0.18)">
      <defs>
       <path id="SegoeUI-68" d="M 3175 0 
L 2663 0 
L 2663 1844 
Q 2663 2844 1919 2844 
Q 1544 2844 1287 2555 
Q 1031 2266 1031 1813 
L 1031 0 
L 519 0 
L 519 4738 
L 1031 4738 
L 1031 2669 
L 1044 2669 
Q 1413 3275 2094 3275 
Q 3175 3275 3175 1972 
L 3175 0 
z
" transform="scale(0.015625)"/>
       <path id="SegoeUI-63" d="M 2700 147 
Q 2331 -75 1825 -75 
Q 1141 -75 720 370 
Q 300 816 300 1525 
Q 300 2316 753 2795 
Q 1206 3275 1963 3275 
Q 2384 3275 2706 3119 
L 2706 2594 
Q 2350 2844 1944 2844 
Q 1453 2844 1139 2492 
Q 825 2141 825 1569 
Q 825 1006 1120 681 
Q 1416 356 1913 356 
Q 2331 356 2700 634 
L 2700 147 
z
" transform="scale(0.015625)"/>
       <path id="SegoeUI-67" d="M 3250 256 
Q 3250 -1506 1563 -1506 
Q 969 -1506 525 -1281 
L 525 -769 
Q 1066 -1069 1556 -1069 
Q 2738 -1069 2738 188 
L 2738 538 
L 2725 538 
Q 2359 -75 1625 -75 
Q 1028 -75 664 351 
Q 300 778 300 1497 
Q 300 2313 692 2794 
Q 1084 3275 1766 3275 
Q 2413 3275 2725 2756 
L 2738 2756 
L 2738 3200 
L 3250 3200 
L 3250 256 
z
M 2738 1447 
L 2738 1919 
Q 2738 2300 2480 2572 
Q 2222 2844 1838 2844 
Q 1363 2844 1094 2498 
Q 825 2153 825 1531 
Q 825 997 1083 676 
Q 1341 356 1766 356 
Q 2197 356 2467 662 
Q 2738 969 2738 1447 
z
" transform="scale(0.015625)"/>
      </defs>
      <use xlink:href="#SegoeUI-53"/>
      <use xlink:href="#SegoeUI-68" transform="translate(53.125 0)"/>
      <use xlink:href="#SegoeUI-6f" transform="translate(109.716797 0)"/>
      <use xlink:href="#SegoeUI-6f" transform="translate(168.310547 0)"/>
      <use xlink:href="#SegoeUI-74" transform="translate(226.904297 0)"/>
      <use xlink:href="#SegoeUI-20" transform="translate(260.791016 0)"/>
      <use xlink:href="#SegoeUI-42" transform="translate(288.183594 0)"/>
      <use xlink:href="#SegoeUI-72" transform="translate(345.507812 0)"/>
      <use xlink:href="#SegoeUI-61" transform="translate(380.273438 0)"/>
      <use xlink:href="#SegoeUI-6e" transform="translate(431.152344 0)"/>
      <use xlink:href="#SegoeUI-63" transform="translate(487.744141 0)"/>
      <use xlink:href="#SegoeUI-68" transform="translate(533.935547 0)"/>
      <use xlink:href="#SegoeUI-69" transform="translate(590.527344 0)"/>
      <use xlink:href="#SegoeUI-6e" transform="translate(614.746094 0)"/>
      <use xlink:href="#SegoeUI-67" transform="translate(671.337891 0)"/>
     </g>
    </g>
    <g id="line2d_41">
     <path d="M 792.34424 336.161562 
L 810.34424 336.161562 
L 828.34424 336.161562 
" style="fill: none; stroke-dasharray: 1.2,1.98; stroke-dashoffset: 0; stroke: #888888; stroke-width: 1.2"/>
    </g>
    <g id="text_31">
     <!-- WT baseline -->
     <g transform="translate(842.74424 342.461562) scale(0.18 -0.18)">
      <defs>
       <path id="SegoeUI-57" d="M 5900 4481 
L 4634 0 
L 4019 0 
L 3097 3275 
Q 3038 3484 3025 3731 
L 3013 3731 
Q 2994 3500 2931 3281 
L 2003 0 
L 1394 0 
L 81 4481 
L 659 4481 
L 1613 1044 
Q 1672 828 1688 594 
L 1703 594 
Q 1719 759 1800 1044 
L 2791 4481 
L 3294 4481 
L 4244 1019 
Q 4294 841 4319 600 
L 4331 600 
Q 4344 763 4416 1031 
L 5331 4481 
L 5900 4481 
z
" transform="scale(0.015625)"/>
       <path id="SegoeUI-54" d="M 3238 4006 
L 1944 4006 
L 1944 0 
L 1419 0 
L 1419 4006 
L 128 4006 
L 128 4481 
L 3238 4481 
L 3238 4006 
z
" transform="scale(0.015625)"/>
       <path id="SegoeUI-62" d="M 1044 463 
L 1031 463 
L 1031 0 
L 519 0 
L 519 4738 
L 1031 4738 
L 1031 2638 
L 1044 2638 
Q 1422 3275 2150 3275 
Q 2766 3275 3114 2845 
Q 3463 2416 3463 1694 
Q 3463 891 3072 408 
Q 2681 -75 2003 -75 
Q 1369 -75 1044 463 
z
M 1031 1753 
L 1031 1306 
Q 1031 909 1289 632 
Q 1547 356 1944 356 
Q 2409 356 2673 712 
Q 2938 1069 2938 1703 
Q 2938 2238 2691 2541 
Q 2444 2844 2022 2844 
Q 1575 2844 1303 2533 
Q 1031 2222 1031 1753 
z
" transform="scale(0.015625)"/>
       <path id="SegoeUI-73" d="M 325 116 
L 325 666 
Q 744 356 1247 356 
Q 1922 356 1922 806 
Q 1922 934 1864 1023 
Q 1806 1113 1707 1181 
Q 1609 1250 1476 1304 
Q 1344 1359 1191 1419 
Q 978 1503 817 1589 
Q 656 1675 548 1783 
Q 441 1891 386 2028 
Q 331 2166 331 2350 
Q 331 2575 434 2748 
Q 538 2922 709 3039 
Q 881 3156 1101 3215 
Q 1322 3275 1556 3275 
Q 1972 3275 2300 3131 
L 2300 2613 
Q 1947 2844 1488 2844 
Q 1344 2844 1228 2811 
Q 1113 2778 1030 2718 
Q 947 2659 901 2576 
Q 856 2494 856 2394 
Q 856 2269 901 2184 
Q 947 2100 1034 2034 
Q 1122 1969 1247 1916 
Q 1372 1863 1531 1800 
Q 1744 1719 1912 1633 
Q 2081 1547 2200 1439 
Q 2319 1331 2383 1190 
Q 2447 1050 2447 856 
Q 2447 619 2342 444 
Q 2238 269 2063 153 
Q 1888 38 1659 -18 
Q 1431 -75 1181 -75 
Q 688 -75 325 116 
z
" transform="scale(0.015625)"/>
      </defs>
      <use xlink:href="#SegoeUI-57"/>
      <use xlink:href="#SegoeUI-54" transform="translate(95.283203 0)"/>
      <use xlink:href="#SegoeUI-20" transform="translate(147.675781 0)"/>
      <use xlink:href="#SegoeUI-62" transform="translate(175.068359 0)"/>
      <use xlink:href="#SegoeUI-61" transform="translate(232.482422 0)"/>
      <use xlink:href="#SegoeUI-73" transform="translate(283.361328 0)"/>
      <use xlink:href="#SegoeUI-65" transform="translate(325.792969 0)"/>
      <use xlink:href="#SegoeUI-6c" transform="translate(378.087891 0)"/>
      <use xlink:href="#SegoeUI-69" transform="translate(402.306641 0)"/>
      <use xlink:href="#SegoeUI-6e" transform="translate(426.525391 0)"/>
      <use xlink:href="#SegoeUI-65" transform="translate(483.117188 0)"/>
     </g>
    </g>
   </g>
  </g>
 </g>
 <defs>
  <clipPath id="pd740ddceee">
   <rect x="63.05" y="7.2" width="699.112" height="370.12"/>
  </clipPath>
 </defs>
</svg>
